<svg width="58" height="69" viewBox="0 0 58 69" fill="none" xmlns="http://www.w3.org/2000/svg">
<path d="M6.49991 50H10.6664C11.3735 49.9978 12.0462 49.6931 12.5163 49.1622H33.4156C34.6384 49.1627 35.8377 48.8247 36.8821 48.1852L52.4982 38.6272C53.2366 38.1788 53.7566 37.4421 53.9337 36.5933C54.1109 35.7444 53.9293 34.8597 53.4323 34.1507C53.4147 34.1215 53.3952 34.0935 53.374 34.0669C52.5678 32.9901 51.1688 32.5497 49.8958 32.9718L43.9985 34.9433V17.3244H45.0901C45.7888 17.3282 46.4157 16.8933 46.6602 16.2352C46.9048 15.5772 46.7151 14.8356 46.1851 14.3778L43.9985 12.4801V3.08124C43.9985 2.15579 43.2523 1.40557 42.3319 1.40557H38.1654C37.245 1.40557 36.4988 2.15579 36.4988 3.08124V5.97009L30.0824 0.400166C29.4576 -0.133389 28.5405 -0.133389 27.9158 0.400166L11.8105 14.3803C11.2822 14.8388 11.094 15.5798 11.3389 16.2369C11.5838 16.894 12.2101 17.328 12.908 17.3244H13.9996V29.0541H13.013C12.6611 28.0535 11.722 27.3829 10.6664 27.3785H6.49991C5.11925 27.3785 4 28.5038 4 29.892V47.4865C4 48.8747 5.11925 50 6.49991 50ZM50.4149 34.5579C50.9867 34.3691 51.6151 34.552 51.9982 35.0187C52.0108 35.0395 52.0244 35.0596 52.039 35.079C52.2847 35.4073 52.3803 35.825 52.3023 36.2282C52.2243 36.6315 51.98 36.9827 51.6299 37.1945L36.0155 46.7542C35.232 47.2334 34.3326 47.4867 33.4156 47.4865H13.1663V30.7298H14.6663C16.2038 30.7315 17.6953 31.2576 18.8969 32.222C20.3938 33.4226 22.2511 34.078 24.1659 34.0811H28.5241C29.6861 34.0843 30.7635 34.6928 31.3706 35.6889C31.3798 35.7099 31.3898 35.7292 31.3981 35.7442C31.9217 36.5111 31.8982 37.5287 31.3398 38.2703H26.2658C24.6205 38.2714 23.0122 38.761 21.6427 39.6779L21.0344 40.0884C20.6524 40.3466 20.5509 40.8673 20.8077 41.2513C21.0645 41.6354 21.5823 41.7374 21.9643 41.4792L22.5676 41.072C23.663 40.3383 24.9496 39.9465 26.2658 39.946H33.6739C34.1234 39.9466 34.5699 39.8727 34.9955 39.7273L50.4149 34.5579ZM34.8322 38.019L34.4622 38.143C34.2082 38.2286 33.9418 38.2716 33.6739 38.2703H33.2197C33.5873 37.158 33.4553 35.9399 32.8581 34.9332C32.8448 34.9044 32.8298 34.8764 32.8131 34.8494C31.907 33.3374 30.2815 32.4108 28.5258 32.4055H24.1659C23.831 32.4027 23.4967 32.3747 23.166 32.3217V30.7298C23.166 27.4907 25.7775 24.8649 28.9991 24.8649C32.2206 24.8649 34.8322 27.4907 34.8322 30.7298V38.019ZM38.1654 3.08124H42.3319V11.034L38.1654 7.41704V3.08124ZM17.3328 17.3244C17.7931 17.3244 18.1661 16.9493 18.1661 16.4866C18.1661 16.0239 17.7931 15.6488 17.3328 15.6488H12.9022L28.9991 1.67116L36.7488 8.39898L45.0901 15.6488H33.9989C33.5387 15.6488 33.1656 16.0239 33.1656 16.4866C33.1656 16.9493 33.5387 17.3244 33.9989 17.3244H42.3319V35.5055L36.4988 37.4601V30.7298C36.4988 26.5653 33.141 23.1893 28.9991 23.1893C24.8571 23.1893 21.4993 26.5653 21.4993 30.7298V31.8491C20.9388 31.6098 20.4131 31.295 19.9369 30.9133C18.7063 29.9293 17.2275 29.3091 15.6662 29.122V17.3244H17.3328ZM5.6666 29.892C5.6666 29.4292 6.03969 29.0541 6.49991 29.0541H10.6664C11.1266 29.0541 11.4997 29.4292 11.4997 29.892V47.4865C11.4997 47.9492 11.1266 48.3243 10.6664 48.3243H6.49991C6.03969 48.3243 5.6666 47.9492 5.6666 47.4865V29.892Z" fill="white"/>
<path d="M13.9997 3.91906C14.4599 3.91906 14.833 3.54395 14.833 3.08122V1.40555C14.833 0.94283 14.4599 0.567719 13.9997 0.567719C13.5394 0.567719 13.1664 0.94283 13.1664 1.40555V3.08122C13.1664 3.54395 13.5394 3.91906 13.9997 3.91906Z" fill="white"/>
<path d="M13.9997 5.59473C13.5394 5.59473 13.1664 5.96984 13.1664 6.43256V8.10823C13.1664 8.57096 13.5394 8.94607 13.9997 8.94607C14.4599 8.94607 14.833 8.57096 14.833 8.10823V6.43256C14.833 5.96984 14.4599 5.59473 13.9997 5.59473Z" fill="white"/>
<path d="M15.6662 5.59474H17.3329C17.7931 5.59474 18.1662 5.21963 18.1662 4.7569C18.1662 4.29418 17.7931 3.91907 17.3329 3.91907H15.6662C15.206 3.91907 14.8329 4.29418 14.8329 4.7569C14.8329 5.21963 15.206 5.59474 15.6662 5.59474Z" fill="white"/>
<path d="M10.6664 5.59474H12.333C12.7933 5.59474 13.1663 5.21963 13.1663 4.7569C13.1663 4.29418 12.7933 3.91907 12.333 3.91907H10.6664C10.2062 3.91907 9.83313 4.29418 9.83313 4.7569C9.83313 5.21963 10.2062 5.59474 10.6664 5.59474Z" fill="white"/>
<path d="M50.2483 24.446C50.4693 24.446 50.6812 24.3577 50.8374 24.2005L52.0874 22.9438C52.4032 22.615 52.3987 22.0925 52.0772 21.7693C51.7558 21.4461 51.2361 21.4416 50.9091 21.7591L49.6591 23.0158C49.4209 23.2555 49.3496 23.6158 49.4786 23.9288C49.6075 24.2418 49.9113 24.446 50.2483 24.446Z" fill="white"/>
<path d="M47.1592 25.5293L45.9093 26.7861C45.6926 26.9964 45.6058 27.3079 45.682 27.6009C45.7583 27.8938 45.9858 28.1226 46.2772 28.1992C46.5685 28.2759 46.8783 28.1886 47.0876 27.9708L48.3375 26.714C48.6533 26.3853 48.6488 25.8627 48.3274 25.5395C48.0059 25.2163 47.4862 25.2118 47.1592 25.5293Z" fill="white"/>
<path d="M50.9091 27.9708C51.2361 28.2883 51.7558 28.2837 52.0772 27.9606C52.3987 27.6374 52.4032 27.1148 52.0874 26.7861L50.8374 25.5293C50.5105 25.2118 49.9907 25.2163 49.6693 25.5395C49.3479 25.8627 49.3434 26.3853 49.6592 26.714L50.9091 27.9708Z" fill="white"/>
<path d="M45.9093 21.7591C45.584 22.0862 45.584 22.6166 45.9093 22.9438L47.1592 24.2005C47.4862 24.518 48.006 24.5135 48.3274 24.1903C48.6488 23.8671 48.6533 23.3446 48.3375 23.0158L47.0876 21.7591C46.7622 21.432 46.2347 21.432 45.9093 21.7591Z" fill="white"/>
<path d="M20.6661 17.3244C22.9661 17.3272 24.8299 19.2011 24.8326 21.5136C24.8326 21.9763 25.2057 22.3514 25.6659 22.3514C26.1261 22.3514 26.4992 21.9763 26.4992 21.5136C26.502 19.2011 28.3658 17.3272 30.6657 17.3244C31.1259 17.3244 31.499 16.9493 31.499 16.4866C31.499 16.0239 31.1259 15.6487 30.6657 15.6487C28.3658 15.646 26.502 13.772 26.4992 11.4596C26.4992 10.9968 26.1261 10.6217 25.6659 10.6217C25.2057 10.6217 24.8326 10.9968 24.8326 11.4596C24.8299 13.772 22.9661 15.646 20.6661 15.6487C20.2059 15.6487 19.8328 16.0239 19.8328 16.4866C19.8328 16.9493 20.2059 17.3244 20.6661 17.3244ZM25.6659 14.4758C26.1602 15.2995 26.8466 15.9896 27.6658 16.4866C26.8466 16.9835 26.1602 17.6737 25.6659 18.4974C25.1717 17.6737 24.4852 16.9835 23.666 16.4866C24.4852 15.9896 25.1717 15.2995 25.6659 14.4758Z" fill="white"/>
<path d="M11.8525 65.5469C11.2197 65.5469 10.6455 65.3887 10.1299 65.0723C9.61426 64.7676 9.1748 64.3457 8.81152 63.8066C8.45996 63.2676 8.18457 62.6348 7.98535 61.9082C7.79785 61.1816 7.7041 60.3965 7.7041 59.5527C7.7041 58.3457 7.84473 57.2676 8.12598 56.3184C8.40723 55.3691 8.77637 54.5664 9.2334 53.9102C9.70215 53.2539 10.2295 52.75 10.8154 52.3984C11.4131 52.0469 12.0225 51.8711 12.6436 51.8711C13.2295 51.8711 13.7217 51.9766 14.1201 52.1875C14.5186 52.3984 14.835 52.668 15.0693 52.9961C15.3154 53.3242 15.4795 53.6875 15.5615 54.0859C15.6553 54.4727 15.6846 54.8418 15.6494 55.1934C15.5908 55.873 15.3564 56.4238 14.9463 56.8457C14.5479 57.2676 14.085 57.4785 13.5576 57.4785C13.3818 57.4668 13.2002 57.4375 13.0127 57.3906C12.8486 57.3438 12.6787 57.2734 12.5029 57.1797C12.3271 57.0859 12.1631 56.9512 12.0107 56.7754C12.5029 56.8105 12.8838 56.7109 13.1533 56.4766C13.4229 56.2422 13.6221 55.9785 13.751 55.6855C13.8916 55.3457 13.9736 54.9473 13.9971 54.4902C13.9971 54.2324 13.9561 54.0098 13.874 53.8223C13.792 53.623 13.6807 53.4648 13.54 53.3477C13.4111 53.2188 13.2705 53.125 13.1182 53.0664C12.9658 53.0078 12.8193 52.9785 12.6787 52.9785C12.3623 52.9785 12.0166 53.1016 11.6416 53.3477C11.2783 53.5938 10.9326 53.9688 10.6045 54.4727C10.2764 54.9648 10.001 55.5977 9.77832 56.3711C9.56738 57.1328 9.46191 58.041 9.46191 59.0957C9.46191 60.1387 9.55566 60.9941 9.74316 61.6621C9.93066 62.3184 10.1592 62.834 10.4287 63.209C10.6982 63.5723 10.9795 63.8242 11.2725 63.9648C11.5771 64.0938 11.835 64.1582 12.0459 64.1582C12.4561 64.123 12.8311 63.9824 13.1709 63.7363C13.4639 63.5254 13.7393 63.1914 13.9971 62.7344C14.2666 62.2656 14.4482 61.5977 14.542 60.7305C14.6943 60.7422 14.8174 60.7773 14.9111 60.8359C15.0166 60.8945 15.1045 60.9531 15.1748 61.0117C15.2451 61.082 15.3096 61.1641 15.3682 61.2578C15.3799 61.2695 15.3799 61.3867 15.3682 61.6094C15.3564 61.832 15.3154 62.1016 15.2451 62.418C15.1748 62.7344 15.0635 63.0742 14.9111 63.4375C14.7705 63.8008 14.5654 64.1406 14.2959 64.457C14.0381 64.7734 13.71 65.0312 13.3115 65.2305C12.9131 65.4414 12.4268 65.5469 11.8525 65.5469ZM18.8662 52.6094C18.8428 53.0312 18.8018 53.5176 18.7432 54.0684C18.6846 54.6191 18.6201 55.2109 18.5498 55.8438C18.4912 56.4766 18.4268 57.1387 18.3564 57.8301C18.2979 58.5215 18.2451 59.2188 18.1982 59.9219C18.1514 60.625 18.1279 61.1992 18.1279 61.6445C18.1396 62.0781 18.1689 62.4355 18.2158 62.7168C18.2627 62.998 18.3271 63.2207 18.4092 63.3848C18.4912 63.5488 18.5967 63.707 18.7256 63.8594C18.5732 63.9531 18.4326 64.0234 18.3037 64.0703C18.1748 64.1172 18.0635 64.1523 17.9697 64.1758C17.8525 64.2109 17.7471 64.2285 17.6533 64.2285C17.4775 64.2285 17.3252 64.1465 17.1963 63.9824C17.0674 63.8066 16.9619 63.584 16.8799 63.3145C16.8096 63.0449 16.751 62.7461 16.7041 62.418C16.6689 62.0781 16.6514 61.7441 16.6514 61.416C16.6514 61.0645 16.6631 60.6602 16.6865 60.2031C16.71 59.7344 16.7334 59.2422 16.7568 58.7266C16.792 58.1992 16.8271 57.6543 16.8623 57.0918C16.8975 56.5176 16.9268 55.9492 16.9502 55.3867C16.9736 54.9531 16.9971 54.5605 17.0205 54.209C17.0439 53.9043 17.0615 53.6289 17.0732 53.3828C17.085 53.125 17.0791 52.9727 17.0557 52.9258C17.126 52.832 17.2139 52.7617 17.3193 52.7148C17.4248 52.668 17.5244 52.627 17.6182 52.5918C17.7354 52.5566 17.8525 52.5273 17.9697 52.5039H18.3037C18.3975 52.5039 18.4971 52.5156 18.6025 52.5391C18.708 52.5508 18.7959 52.5742 18.8662 52.6094ZM22.0479 64.1934C21.2275 64.1934 20.5947 63.918 20.1494 63.3672C19.7041 62.8164 19.4814 62.0957 19.4814 61.2051C19.4814 60.584 19.5693 60.0039 19.7451 59.4648C19.9326 58.9141 20.1787 58.4395 20.4834 58.041C20.7881 57.6426 21.1396 57.332 21.5381 57.1094C21.9482 56.875 22.376 56.7578 22.8213 56.7578C23.2549 56.7578 23.624 56.916 23.9287 57.2324C24.2334 57.5371 24.3857 57.9766 24.3857 58.5508C24.3857 58.9258 24.3037 59.3008 24.1396 59.6758C23.9756 60.0391 23.7588 60.3672 23.4893 60.6602C23.2314 60.9414 22.9443 61.1699 22.6279 61.3457C22.3115 61.5215 22.0068 61.6094 21.7139 61.6094C21.5264 61.6094 21.3682 61.5859 21.2393 61.5391C21.1104 61.4922 20.9932 61.4219 20.8877 61.3281C20.9229 61.9961 21.0693 62.4648 21.3271 62.7344C21.585 62.9922 21.9189 63.1211 22.3291 63.1211C22.6104 63.1211 22.8564 63.0625 23.0674 62.9453C23.29 62.8281 23.4775 62.6934 23.6299 62.541C23.7822 62.3887 23.9053 62.2363 23.999 62.084C24.0928 61.9199 24.1572 61.7969 24.1924 61.7148C24.2275 61.6445 24.2861 61.6094 24.3682 61.6094C24.4619 61.6094 24.5088 61.6797 24.5088 61.8203C24.5088 61.9492 24.4619 62.1484 24.3682 62.418C24.2861 62.6758 24.1455 62.9395 23.9463 63.209C23.7471 63.4668 23.4893 63.6953 23.1729 63.8945C22.8682 64.0938 22.4932 64.1934 22.0479 64.1934ZM22.8564 57.5137C22.7861 57.5137 22.6514 57.5898 22.4521 57.7422C22.2646 57.8828 22.0596 58.0938 21.8369 58.375C21.626 58.6562 21.4268 58.9961 21.2393 59.3945C21.0635 59.7812 20.9521 60.2207 20.9053 60.7129C21.6084 60.5488 22.165 60.291 22.5752 59.9395C22.9854 59.5879 23.1904 59.0723 23.1904 58.3926C23.1904 58.0527 23.1494 57.8242 23.0674 57.707C22.9854 57.5781 22.915 57.5137 22.8564 57.5137ZM30.6084 63.1035C30.6318 63.1855 30.667 63.2617 30.7139 63.332C30.749 63.3906 30.7959 63.4492 30.8545 63.5078C30.9248 63.5547 31.0068 63.584 31.1006 63.5957C31.0186 63.7598 30.9365 63.8711 30.8545 63.9297C30.8076 63.9648 30.7666 63.9883 30.7314 64C30.626 64.0352 30.4678 64.0527 30.2568 64.0527C30.0459 64.0527 29.8408 63.9883 29.6416 63.8594C29.5713 63.8008 29.5068 63.7129 29.4482 63.5957C29.3896 63.502 29.3369 63.373 29.29 63.209C29.2549 63.0332 29.2256 62.8105 29.2021 62.541C29.0381 62.8926 28.8506 63.1738 28.6396 63.3848C28.4404 63.584 28.2412 63.7305 28.042 63.8242C27.8193 63.9531 27.5908 64.0293 27.3564 64.0527C27.0635 64.0762 26.7822 64.0293 26.5127 63.9121C26.2549 63.7832 26.0322 63.5957 25.8447 63.3496C25.6689 63.0918 25.5342 62.7812 25.4404 62.418C25.3467 62.0547 25.3174 61.6445 25.3525 61.1875C25.3877 60.707 25.4814 60.2793 25.6338 59.9043C25.7861 59.5293 25.9678 59.1953 26.1787 58.9023C26.3896 58.6094 26.6123 58.3633 26.8467 58.1641C27.0811 57.9531 27.3037 57.7832 27.5146 57.6543C27.7373 57.5137 27.9248 57.4141 28.0771 57.3555C28.2412 57.2852 28.3467 57.2441 28.3936 57.2324C28.5225 57.1973 28.6338 57.1855 28.7275 57.1973C28.8213 57.209 28.9033 57.2617 28.9736 57.3555C28.9971 57.3906 29.0264 57.4316 29.0615 57.4785C29.085 57.5254 29.1143 57.5898 29.1494 57.6719C29.1846 57.7422 29.2139 57.8242 29.2373 57.918C28.9561 58.0469 28.6924 58.1934 28.4463 58.3574C28.2002 58.5098 27.9717 58.6973 27.7607 58.9199C27.5615 59.1426 27.3857 59.4121 27.2334 59.7285C27.0811 60.0449 26.9639 60.4316 26.8818 60.8887C26.7646 61.4629 26.7939 61.9258 26.9697 62.2773C27.1572 62.6289 27.4092 62.7754 27.7256 62.7168C27.9131 62.6582 28.0947 62.5469 28.2705 62.3828C28.4229 62.2422 28.5811 62.0312 28.7451 61.75C28.9209 61.4688 29.085 61.082 29.2373 60.5898C29.2959 59.8867 29.3428 59.3359 29.3779 58.9375C29.4248 58.5273 29.4658 58.2168 29.501 58.0059C29.5479 57.7598 29.583 57.5957 29.6064 57.5137C29.6416 57.4551 29.7119 57.4023 29.8174 57.3555C29.9229 57.2969 30.04 57.25 30.1689 57.2148C30.2979 57.1797 30.415 57.1621 30.5205 57.1621C30.626 57.1504 30.6963 57.1504 30.7314 57.1621C30.7549 57.1738 30.7666 57.3203 30.7666 57.6016C30.7666 57.8711 30.7549 58.2168 30.7314 58.6387C30.7197 59.0488 30.7021 59.5 30.6787 59.9922C30.6553 60.4727 30.6318 60.9297 30.6084 61.3633C30.5967 61.7969 30.585 62.1777 30.5732 62.5059C30.5732 62.8223 30.585 63.0215 30.6084 63.1035ZM33.9482 63.5254C33.9365 63.5957 33.8721 63.6719 33.7549 63.7539C33.6494 63.8242 33.5205 63.8887 33.3682 63.9473C33.2275 64.0059 33.0928 64.041 32.9639 64.0527C32.835 64.0762 32.7471 64.0645 32.7002 64.0176C32.6533 63.9707 32.5771 63.8828 32.4717 63.7539C32.3662 63.625 32.3018 63.4141 32.2783 63.1211C32.2549 62.8164 32.2432 62.4355 32.2432 61.9785C32.2432 61.5098 32.2373 60.9941 32.2256 60.4316V59.7285C32.2256 59.5176 32.2197 59.2715 32.208 58.9902C32.208 58.709 32.2021 58.416 32.1904 58.1113C32.2959 58.0527 32.4014 58 32.5068 57.9531C32.624 57.8945 32.7295 57.8477 32.8232 57.8125C32.9287 57.7656 33.0283 57.7305 33.1221 57.707C33.3682 57.6367 33.5557 57.5957 33.6846 57.584C33.8135 57.5723 33.8896 57.6133 33.9131 57.707C33.9248 57.7773 33.9189 57.9473 33.8955 58.2168C33.8721 58.4512 33.8428 58.8086 33.8076 59.2891C33.7725 59.7578 33.7139 60.4141 33.6318 61.2578C33.7842 60.8828 33.9072 60.5605 34.001 60.291C34.1064 60.0215 34.1943 59.8047 34.2646 59.6406C34.335 59.4414 34.3994 59.2832 34.458 59.166C34.5166 59.0137 34.5928 58.8438 34.6865 58.6562C34.7803 58.4688 34.874 58.293 34.9678 58.1289C35.0732 57.9648 35.167 57.8184 35.249 57.6895C35.3428 57.5605 35.4131 57.4844 35.46 57.4609C35.4951 57.4375 35.6006 57.4375 35.7764 57.4609C35.9521 57.4844 36.1396 57.543 36.3389 57.6367C36.5381 57.7188 36.7314 57.8418 36.9189 58.0059C37.1064 58.1582 37.2295 58.3457 37.2881 58.5684C37.3584 58.8262 37.3818 59.166 37.3584 59.5879C37.3467 60.0098 37.3174 60.4434 37.2705 60.8887C37.2354 61.334 37.2061 61.7559 37.1826 62.1543C37.1592 62.5527 37.1826 62.8574 37.2529 63.0684C37.2764 63.1855 37.3115 63.291 37.3584 63.3848C37.3818 63.4785 37.4111 63.5664 37.4463 63.6484C37.4932 63.7188 37.54 63.7715 37.5869 63.8066C37.3057 63.9355 37.0771 64.0293 36.9014 64.0879C36.7256 64.1465 36.5908 64.1875 36.4971 64.2109C36.3799 64.2461 36.2979 64.2578 36.251 64.2461C36.1455 64.2109 36.0518 64.123 35.9697 63.9824C35.8994 63.8418 35.835 63.6191 35.7764 63.3145C35.7529 63.2207 35.7412 63.0684 35.7412 62.8574C35.7529 62.6348 35.7705 62.3887 35.7939 62.1191C35.8174 61.8379 35.8408 61.5508 35.8643 61.2578C35.8994 60.9531 35.9229 60.6719 35.9346 60.4141C35.958 60.1445 35.9756 59.916 35.9873 59.7285C35.999 59.5293 35.999 59.3945 35.9873 59.3242C35.9287 59.1133 35.8467 58.9668 35.7412 58.8848C35.6357 58.791 35.5537 58.7793 35.4951 58.8496C35.3428 59.0254 35.1787 59.3125 35.0029 59.7109C34.8389 60.0977 34.6807 60.5254 34.5283 60.9941C34.376 61.4512 34.2471 61.9082 34.1416 62.3652C34.0361 62.8223 33.9717 63.209 33.9482 63.5254ZM43.4229 61.7852C43.4229 61.9141 43.376 62.1133 43.2822 62.3828C43.2002 62.6406 43.0596 62.9043 42.8604 63.1738C42.6611 63.4316 42.4033 63.6602 42.0869 63.8594C41.7822 64.0586 41.4072 64.1582 40.9619 64.1582C40.3291 64.1582 39.7959 63.9883 39.3623 63.6484C38.9404 63.2969 38.6416 62.7988 38.4658 62.1543C38.3252 61.6152 38.2842 61.041 38.3428 60.4316C38.4131 59.8105 38.583 59.2363 38.8525 58.709C39.1221 58.1816 39.4971 57.7363 39.9775 57.373C40.458 56.998 41.0439 56.793 41.7354 56.7578C42.0869 56.7461 42.3799 56.8105 42.6143 56.9512C42.8486 57.0918 43.0303 57.2734 43.1592 57.4961C43.2881 57.7188 43.3643 57.9648 43.3877 58.2344C43.4111 58.4922 43.3818 58.7383 43.2998 58.9727C43.2295 59.207 43.1123 59.4062 42.9482 59.5703C42.7959 59.7227 42.5967 59.8047 42.3506 59.8164C42.1045 59.8398 41.8994 59.8105 41.7354 59.7285C41.583 59.6348 41.46 59.5234 41.3662 59.3945C41.2842 59.2656 41.2256 59.1309 41.1904 58.9902C41.167 58.8496 41.167 58.7266 41.1904 58.6211C41.2256 58.4688 41.2842 58.3281 41.3662 58.1992C41.4365 58.082 41.5361 57.9648 41.665 57.8477C41.8057 57.7305 41.9873 57.6367 42.21 57.5664C42.1748 57.543 42.1396 57.5312 42.1045 57.5312C42.0693 57.5312 42.0342 57.5254 41.999 57.5137C41.9521 57.5137 41.917 57.5078 41.8936 57.4961C41.7061 57.4961 41.4893 57.5605 41.2432 57.6895C41.0088 57.8184 40.7803 58.0234 40.5576 58.3047C40.3467 58.5859 40.165 58.9492 40.0127 59.3945C39.8721 59.8281 39.8018 60.3555 39.8018 60.9766C39.8018 61.2461 39.8311 61.5156 39.8896 61.7852C39.9482 62.043 40.0361 62.2773 40.1533 62.4883C40.2822 62.6875 40.4346 62.8516 40.6104 62.9805C40.7979 63.0977 41.0146 63.1562 41.2607 63.1562C41.542 63.1562 41.7881 63.0977 41.999 62.9805C42.2217 62.8516 42.4092 62.7051 42.5615 62.541C42.7139 62.377 42.8311 62.2129 42.9131 62.0488C43.0068 61.8848 43.0713 61.7617 43.1064 61.6797C43.1416 61.6094 43.2002 61.5742 43.2822 61.5742C43.376 61.5742 43.4229 61.6445 43.4229 61.7852ZM49.6455 57.25C49.6689 58.2812 49.6865 59.1836 49.6982 59.957C49.71 60.7305 49.7217 61.3809 49.7334 61.9082C49.7451 62.5293 49.751 63.0625 49.751 63.5078C49.7627 64.0586 49.7158 64.627 49.6104 65.2129C49.5166 65.8105 49.3584 66.3555 49.1357 66.8477C48.9131 67.3398 48.6201 67.7441 48.2568 68.0605C47.8936 68.377 47.4541 68.5352 46.9385 68.5352C46.3174 68.5352 45.8428 68.4062 45.5146 68.1484C45.1865 67.9023 44.9463 67.6211 44.7939 67.3047C44.6416 66.9883 44.5537 66.6895 44.5303 66.4082C44.5068 66.1387 44.4951 65.9805 44.4951 65.9336C44.4951 65.8398 44.5537 65.7344 44.6709 65.6172C44.7881 65.5 44.9639 65.3945 45.1982 65.3008C45.292 65.2656 45.3857 65.2363 45.4795 65.2129C45.5615 65.1895 45.6436 65.1719 45.7256 65.1602C45.8076 65.1484 45.8838 65.1543 45.9541 65.1777C45.8369 65.3887 45.7666 65.6289 45.7432 65.8984C45.7314 66.168 45.7666 66.4199 45.8486 66.6543C45.9424 66.9004 46.0771 67.1055 46.2529 67.2695C46.4287 67.4336 46.6514 67.5156 46.9209 67.5156C47.2959 67.5156 47.5889 67.4043 47.7998 67.1816C48.0225 66.9707 48.1865 66.707 48.292 66.3906C48.4092 66.0742 48.4795 65.7402 48.5029 65.3887C48.5381 65.0371 48.5557 64.7266 48.5557 64.457C48.5557 64.2461 48.5498 63.9766 48.5381 63.6484C48.5381 63.3086 48.5205 62.9336 48.4854 62.5234C48.3447 62.7578 48.1807 62.9863 47.9932 63.209C47.8057 63.4199 47.6064 63.6074 47.3955 63.7715C47.1846 63.9355 46.9678 64.0645 46.7451 64.1582C46.5342 64.2637 46.3232 64.3164 46.1123 64.3164C45.749 64.3164 45.4561 64.2051 45.2334 63.9824C45.0107 63.748 44.8408 63.4609 44.7236 63.1211C44.6064 62.7695 44.5244 62.3945 44.4775 61.9961C44.4424 61.5859 44.4248 61.2109 44.4248 60.8711C44.4248 60.6133 44.4365 60.3027 44.46 59.9395C44.4834 59.5645 44.5127 59.207 44.5479 58.8672C44.583 58.5273 44.624 58.2344 44.6709 57.9883C44.7295 57.7305 44.7881 57.584 44.8467 57.5488C45.1865 57.3496 45.5205 57.2383 45.8486 57.2148C46.1768 57.1914 46.4229 57.2324 46.5869 57.3379C46.4463 57.4434 46.3291 57.6191 46.2354 57.8652C46.1416 58.1113 46.0654 58.3867 46.0068 58.6914C45.9482 58.9844 45.9072 59.2949 45.8838 59.623C45.8604 59.9395 45.8486 60.2266 45.8486 60.4844C45.8486 60.6953 45.8545 60.9473 45.8662 61.2402C45.8779 61.5332 45.9014 61.8145 45.9365 62.084C45.9834 62.3535 46.0479 62.582 46.1299 62.7695C46.2119 62.957 46.3174 63.0508 46.4463 63.0508C46.7041 63.0508 46.9443 62.957 47.167 62.7695C47.3896 62.582 47.583 62.3477 47.7471 62.0664C47.9229 61.7852 48.0576 61.4863 48.1514 61.1699C48.2451 60.8418 48.292 60.5371 48.292 60.2559V60.1152C48.2686 59.8105 48.2451 59.5234 48.2217 59.2539C48.1982 58.9727 48.1748 58.7207 48.1514 58.498C48.1396 58.2754 48.1279 58.0938 48.1162 57.9531C48.1162 57.8008 48.1162 57.7012 48.1162 57.6543C48.1162 57.5371 48.1924 57.4316 48.3447 57.3379C48.5088 57.2441 48.6846 57.1797 48.8721 57.1445C49.0713 57.0977 49.2471 57.0801 49.3994 57.0918C49.5635 57.1035 49.6455 57.1562 49.6455 57.25Z" fill="white"/>
</svg>
