<svg width="153" height="216" viewBox="0 0 153 216" fill="none" xmlns="http://www.w3.org/2000/svg">
<path d="M11.2497 145H23.3326C25.3831 144.994 27.3339 144.11 28.6974 142.57H89.3052C92.8513 142.572 96.3294 141.592 99.3581 139.737L144.645 112.019C146.786 110.719 148.294 108.582 148.808 106.12C149.322 103.659 148.795 101.093 147.354 99.037C147.303 98.9524 147.246 98.8713 147.185 98.794C144.847 95.6714 140.789 94.394 137.098 95.6183L119.996 101.335V50.2409H123.161C125.188 50.2517 127.006 48.9907 127.715 47.0822C128.424 45.1738 127.874 43.0231 126.337 41.6955L119.996 36.1922V8.93559C119.996 6.2518 117.832 4.07615 115.163 4.07615H103.08C100.41 4.07615 98.2465 6.2518 98.2465 8.93559V17.3133L79.6388 1.16048C77.8272 -0.386828 75.1674 -0.386828 73.3558 1.16048L26.6506 41.7028C25.1184 43.0325 24.5725 45.1813 25.2828 47.0869C25.9931 48.9925 27.8092 50.2512 29.8332 50.2409H32.9989V84.257H30.1377C29.1173 81.355 26.3939 79.4103 23.3326 79.3975H11.2497C7.24581 79.3975 4 82.661 4 86.6867V137.711C4 141.737 7.24581 145 11.2497 145ZM138.603 100.218C140.261 99.6703 142.084 100.201 143.195 101.554C143.231 101.615 143.271 101.673 143.313 101.729C144.025 102.681 144.303 103.892 144.077 105.062C143.851 106.231 143.142 107.25 142.127 107.864L96.8449 135.587C94.5729 136.977 91.9645 137.712 89.3052 137.711H30.5823V89.1164H34.9322C39.391 89.1214 43.7163 90.647 47.2011 93.4437C51.5421 96.9256 56.9282 98.8261 62.4812 98.8353H75.1199C78.4897 98.8443 81.6141 100.609 83.3749 103.498C83.4015 103.559 83.4305 103.615 83.4546 103.658C84.9728 105.882 84.9047 108.833 83.2855 110.984H68.5709C63.7995 110.987 59.1353 112.407 55.1638 115.066L53.3997 116.256C52.2919 117.005 51.9976 118.515 52.7424 119.629C53.4871 120.743 54.9888 121.039 56.0966 120.29L57.8462 119.109C61.0227 116.981 64.754 115.845 68.5709 115.843H90.0543C91.3578 115.845 92.6527 115.631 93.887 115.209L138.603 100.218ZM93.4133 110.255L92.3404 110.615C91.6036 110.863 90.8313 110.988 90.0543 110.984H88.7373C89.8032 107.758 89.4203 104.226 87.6885 101.306C87.65 101.223 87.6064 101.142 87.558 101.063C84.9303 96.6785 80.2162 93.9913 75.1247 93.9758H62.4812C61.5098 93.9679 60.5405 93.8866 59.5813 93.7329V89.1164C59.5813 79.7231 67.1548 72.1084 76.4973 72.1084C85.8398 72.1084 93.4133 79.7231 93.4133 89.1164V110.255ZM103.08 8.93559H115.163V31.9985L103.08 21.5094V8.93559ZM42.6652 50.2409C43.9999 50.2409 45.0818 49.153 45.0818 47.8111C45.0818 46.4692 43.9999 45.3814 42.6652 45.3814H29.8163L76.4973 4.84637L98.9715 24.357L123.161 45.3814H90.9968C89.6621 45.3814 88.5802 46.4692 88.5802 47.8111C88.5802 49.153 89.6621 50.2409 90.9968 50.2409H115.163V102.966L98.2465 108.634V89.1164C98.2465 77.0393 88.509 67.2489 76.4973 67.2489C64.4856 67.2489 54.7481 77.0393 54.7481 89.1164V92.3625C53.1224 91.6684 51.5981 90.7554 50.217 89.6485C46.6481 86.795 42.3598 84.9963 37.8321 84.4538V50.2409H42.6652ZM8.83315 86.6867C8.83315 85.3448 9.91509 84.257 11.2497 84.257H23.3326C24.6673 84.257 25.7492 85.3448 25.7492 86.6867V137.711C25.7492 139.053 24.6673 140.141 23.3326 140.141H11.2497C9.91509 140.141 8.83315 139.053 8.83315 137.711V86.6867Z" fill="white"/>
<path d="M32.9989 11.3653C34.3335 11.3653 35.4155 10.2775 35.4155 8.93559V4.07614C35.4155 2.73425 34.3335 1.64642 32.9989 1.64642C31.6643 1.64642 30.5823 2.73425 30.5823 4.07614V8.93559C30.5823 10.2775 31.6643 11.3653 32.9989 11.3653Z" fill="white"/>
<path d="M32.9989 16.2248C31.6643 16.2248 30.5823 17.3126 30.5823 18.6545V23.5139C30.5823 24.8558 31.6643 25.9437 32.9989 25.9437C34.3335 25.9437 35.4155 24.8558 35.4155 23.5139V18.6545C35.4155 17.3126 34.3335 16.2248 32.9989 16.2248Z" fill="white"/>
<path d="M37.8321 16.2248H42.6652C43.9999 16.2248 45.0818 15.137 45.0818 13.7951C45.0818 12.4532 43.9999 11.3653 42.6652 11.3653H37.8321C36.4974 11.3653 35.4155 12.4532 35.4155 13.7951C35.4155 15.137 36.4974 16.2248 37.8321 16.2248Z" fill="white"/>
<path d="M23.3326 16.2248H28.1658C29.5004 16.2248 30.5823 15.137 30.5823 13.7951C30.5823 12.4532 29.5004 11.3653 28.1658 11.3653H23.3326C21.998 11.3653 20.916 12.4532 20.916 13.7951C20.916 15.137 21.998 16.2248 23.3326 16.2248Z" fill="white"/>
<path d="M138.12 70.8935C138.761 70.8933 139.375 70.6373 139.829 70.1816L143.453 66.537C144.369 65.5836 144.356 64.0682 143.424 63.131C142.492 62.1937 140.985 62.1806 140.036 63.1014L136.411 66.7459C135.721 67.4408 135.514 68.4857 135.888 69.3935C136.262 70.3013 137.143 70.8933 138.12 70.8935Z" fill="white"/>
<path d="M129.162 74.0351L125.537 77.6797C124.909 78.2897 124.657 79.1931 124.878 80.0426C125.099 80.8921 125.759 81.5555 126.604 81.7779C127.449 82.0002 128.347 81.7469 128.954 81.1153L132.579 77.4707C133.495 76.5174 133.482 75.0019 132.549 74.0647C131.617 73.1275 130.11 73.1143 129.162 74.0351Z" fill="white"/>
<path d="M140.036 81.1153C140.985 82.0361 142.492 82.0229 143.424 81.0857C144.356 80.1485 144.369 78.633 143.453 77.6797L139.829 74.0351C138.88 73.1143 137.373 73.1275 136.441 74.0647C135.509 75.0019 135.496 76.5173 136.411 77.4707L140.036 81.1153Z" fill="white"/>
<path d="M125.537 63.1014C124.593 64.0502 124.593 65.5882 125.537 66.537L129.162 70.1816C130.11 71.1024 131.617 71.0892 132.549 70.152C133.481 69.2147 133.495 67.6993 132.579 66.7459L128.954 63.1014C128.01 62.1528 126.481 62.1528 125.537 63.1014Z" fill="white"/>
<path d="M52.3316 50.2408C59.0014 50.2489 64.4064 55.6833 64.4144 62.3895C64.4144 63.7313 65.4964 64.8192 66.831 64.8192C68.1657 64.8192 69.2476 63.7313 69.2476 62.3895C69.2556 55.6833 74.6606 50.2489 81.3305 50.2408C82.6651 50.2408 83.747 49.153 83.747 47.8111C83.747 46.4692 82.6651 45.3814 81.3305 45.3814C74.6606 45.3734 69.2556 39.939 69.2476 33.2328C69.2476 31.8909 68.1657 30.8031 66.831 30.8031C65.4964 30.8031 64.4144 31.8909 64.4144 33.2328C64.4064 39.939 59.0014 45.3734 52.3316 45.3814C50.9969 45.3814 49.915 46.4692 49.915 47.8111C49.915 49.153 50.9969 50.2408 52.3316 50.2408ZM66.831 41.9798C68.2643 44.3685 70.255 46.37 72.6308 47.8111C70.255 49.2523 68.2643 51.2538 66.831 53.6425C65.3977 51.2538 63.407 49.2523 61.0312 47.8111C63.407 46.37 65.3977 44.3685 66.831 41.9798Z" fill="white"/>
<path d="M15.5312 199.5C13.2812 199.5 11.2396 198.938 9.40625 197.812C7.57292 196.729 6.01042 195.229 4.71875 193.312C3.46875 191.396 2.48958 189.146 1.78125 186.562C1.11458 183.979 0.78125 181.188 0.78125 178.188C0.78125 173.896 1.28125 170.062 2.28125 166.688C3.28125 163.312 4.59375 160.458 6.21875 158.125C7.88542 155.792 9.76042 154 11.8438 152.75C13.9688 151.5 16.1354 150.875 18.3438 150.875C20.4271 150.875 22.1771 151.25 23.5938 152C25.0104 152.75 26.1354 153.708 26.9688 154.875C27.8438 156.042 28.4271 157.333 28.7188 158.75C29.0521 160.125 29.1562 161.438 29.0312 162.688C28.8229 165.104 27.9896 167.062 26.5312 168.562C25.1146 170.062 23.4688 170.812 21.5938 170.812C20.9688 170.771 20.3229 170.667 19.6562 170.5C19.0729 170.333 18.4688 170.083 17.8438 169.75C17.2188 169.417 16.6354 168.938 16.0938 168.312C17.8438 168.438 19.1979 168.083 20.1562 167.25C21.1146 166.417 21.8229 165.479 22.2812 164.438C22.7812 163.229 23.0729 161.812 23.1562 160.188C23.1562 159.271 23.0104 158.479 22.7188 157.812C22.4271 157.104 22.0312 156.542 21.5312 156.125C21.0729 155.667 20.5729 155.333 20.0312 155.125C19.4896 154.917 18.9688 154.812 18.4688 154.812C17.3438 154.812 16.1146 155.25 14.7812 156.125C13.4896 157 12.2604 158.333 11.0938 160.125C9.92708 161.875 8.94792 164.125 8.15625 166.875C7.40625 169.583 7.03125 172.812 7.03125 176.562C7.03125 180.271 7.36458 183.312 8.03125 185.688C8.69792 188.021 9.51042 189.854 10.4688 191.188C11.4271 192.479 12.4271 193.375 13.4688 193.875C14.5521 194.333 15.4688 194.562 16.2188 194.562C17.6771 194.438 19.0104 193.938 20.2188 193.062C21.2604 192.312 22.2396 191.125 23.1562 189.5C24.1146 187.833 24.7604 185.458 25.0938 182.375C25.6354 182.417 26.0729 182.542 26.4062 182.75C26.7812 182.958 27.0938 183.167 27.3438 183.375C27.5938 183.625 27.8229 183.917 28.0312 184.25C28.0729 184.292 28.0729 184.708 28.0312 185.5C27.9896 186.292 27.8438 187.25 27.5938 188.375C27.3438 189.5 26.9479 190.708 26.4062 192C25.9062 193.292 25.1771 194.5 24.2188 195.625C23.3021 196.75 22.1354 197.667 20.7188 198.375C19.3021 199.125 17.5729 199.5 15.5312 199.5ZM40.4688 153.5C40.3854 155 40.2396 156.729 40.0312 158.688C39.8229 160.646 39.5938 162.75 39.3438 165C39.1354 167.25 38.9062 169.604 38.6562 172.062C38.4479 174.521 38.2604 177 38.0938 179.5C37.9271 182 37.8438 184.042 37.8438 185.625C37.8854 187.167 37.9896 188.438 38.1562 189.438C38.3229 190.438 38.5521 191.229 38.8438 191.812C39.1354 192.396 39.5104 192.958 39.9688 193.5C39.4271 193.833 38.9271 194.083 38.4688 194.25C38.0104 194.417 37.6146 194.542 37.2812 194.625C36.8646 194.75 36.4896 194.812 36.1562 194.812C35.5312 194.812 34.9896 194.521 34.5312 193.938C34.0729 193.312 33.6979 192.521 33.4062 191.562C33.1562 190.604 32.9479 189.542 32.7812 188.375C32.6562 187.167 32.5938 185.979 32.5938 184.812C32.5938 183.562 32.6354 182.125 32.7188 180.5C32.8021 178.833 32.8854 177.083 32.9688 175.25C33.0938 173.375 33.2188 171.438 33.3438 169.438C33.4688 167.396 33.5729 165.375 33.6562 163.375C33.7396 161.833 33.8229 160.438 33.9062 159.188C33.9896 158.104 34.0521 157.125 34.0938 156.25C34.1354 155.333 34.1146 154.792 34.0312 154.625C34.2812 154.292 34.5938 154.042 34.9688 153.875C35.3438 153.708 35.6979 153.562 36.0312 153.438C36.4479 153.312 36.8646 153.208 37.2812 153.125H38.4688C38.8021 153.125 39.1562 153.167 39.5312 153.25C39.9062 153.292 40.2188 153.375 40.4688 153.5ZM51.7812 194.688C48.8646 194.688 46.6146 193.708 45.0312 191.75C43.4479 189.792 42.6562 187.229 42.6562 184.062C42.6562 181.854 42.9688 179.792 43.5938 177.875C44.2604 175.917 45.1354 174.229 46.2188 172.812C47.3021 171.396 48.5521 170.292 49.9688 169.5C51.4271 168.667 52.9479 168.25 54.5312 168.25C56.0729 168.25 57.3854 168.812 58.4688 169.938C59.5521 171.021 60.0938 172.583 60.0938 174.625C60.0938 175.958 59.8021 177.292 59.2188 178.625C58.6354 179.917 57.8646 181.083 56.9062 182.125C55.9896 183.125 54.9688 183.938 53.8438 184.562C52.7188 185.188 51.6354 185.5 50.5938 185.5C49.9271 185.5 49.3646 185.417 48.9062 185.25C48.4479 185.083 48.0312 184.833 47.6562 184.5C47.7812 186.875 48.3021 188.542 49.2188 189.5C50.1354 190.417 51.3229 190.875 52.7812 190.875C53.7812 190.875 54.6562 190.667 55.4062 190.25C56.1979 189.833 56.8646 189.354 57.4062 188.812C57.9479 188.271 58.3854 187.729 58.7188 187.188C59.0521 186.604 59.2812 186.167 59.4062 185.875C59.5312 185.625 59.7396 185.5 60.0312 185.5C60.3646 185.5 60.5312 185.75 60.5312 186.25C60.5312 186.708 60.3646 187.417 60.0312 188.375C59.7396 189.292 59.2396 190.229 58.5312 191.188C57.8229 192.104 56.9062 192.917 55.7812 193.625C54.6979 194.333 53.3646 194.688 51.7812 194.688ZM54.6562 170.938C54.4062 170.938 53.9271 171.208 53.2188 171.75C52.5521 172.25 51.8229 173 51.0312 174C50.2812 175 49.5729 176.208 48.9062 177.625C48.2812 179 47.8854 180.562 47.7188 182.312C50.2188 181.729 52.1979 180.812 53.6562 179.562C55.1146 178.312 55.8438 176.479 55.8438 174.062C55.8438 172.854 55.6979 172.042 55.4062 171.625C55.1146 171.167 54.8646 170.938 54.6562 170.938ZM82.2188 190.812C82.3021 191.104 82.4271 191.375 82.5938 191.625C82.7188 191.833 82.8854 192.042 83.0938 192.25C83.3438 192.417 83.6354 192.521 83.9688 192.562C83.6771 193.146 83.3854 193.542 83.0938 193.75C82.9271 193.875 82.7812 193.958 82.6562 194C82.2812 194.125 81.7188 194.188 80.9688 194.188C80.2188 194.188 79.4896 193.958 78.7812 193.5C78.5312 193.292 78.3021 192.979 78.0938 192.562C77.8854 192.229 77.6979 191.771 77.5312 191.188C77.4062 190.562 77.3021 189.771 77.2188 188.812C76.6354 190.062 75.9688 191.062 75.2188 191.812C74.5104 192.521 73.8021 193.042 73.0938 193.375C72.3021 193.833 71.4896 194.104 70.6562 194.188C69.6146 194.271 68.6146 194.104 67.6562 193.688C66.7396 193.229 65.9479 192.562 65.2812 191.688C64.6562 190.771 64.1771 189.667 63.8438 188.375C63.5104 187.083 63.4062 185.625 63.5312 184C63.6562 182.292 63.9896 180.771 64.5312 179.438C65.0729 178.104 65.7188 176.917 66.4688 175.875C67.2188 174.833 68.0104 173.958 68.8438 173.25C69.6771 172.5 70.4688 171.896 71.2188 171.438C72.0104 170.938 72.6771 170.583 73.2188 170.375C73.8021 170.125 74.1771 169.979 74.3438 169.938C74.8021 169.812 75.1979 169.771 75.5312 169.812C75.8646 169.854 76.1562 170.042 76.4062 170.375C76.4896 170.5 76.5938 170.646 76.7188 170.812C76.8021 170.979 76.9062 171.208 77.0312 171.5C77.1562 171.75 77.2604 172.042 77.3438 172.375C76.3438 172.833 75.4062 173.354 74.5312 173.938C73.6562 174.479 72.8438 175.146 72.0938 175.938C71.3854 176.729 70.7604 177.688 70.2188 178.812C69.6771 179.938 69.2604 181.312 68.9688 182.938C68.5521 184.979 68.6562 186.625 69.2812 187.875C69.9479 189.125 70.8438 189.646 71.9688 189.438C72.6354 189.229 73.2812 188.833 73.9062 188.25C74.4479 187.75 75.0104 187 75.5938 186C76.2188 185 76.8021 183.625 77.3438 181.875C77.5521 179.375 77.7188 177.417 77.8438 176C78.0104 174.542 78.1562 173.438 78.2812 172.688C78.4479 171.812 78.5729 171.229 78.6562 170.938C78.7812 170.729 79.0312 170.542 79.4062 170.375C79.7812 170.167 80.1979 170 80.6562 169.875C81.1146 169.75 81.5312 169.688 81.9062 169.688C82.2812 169.646 82.5312 169.646 82.6562 169.688C82.7396 169.729 82.7812 170.25 82.7812 171.25C82.7812 172.208 82.7396 173.438 82.6562 174.938C82.6146 176.396 82.5521 178 82.4688 179.75C82.3854 181.458 82.3021 183.083 82.2188 184.625C82.1771 186.167 82.1354 187.521 82.0938 188.688C82.0938 189.812 82.1354 190.521 82.2188 190.812ZM94.0938 192.312C94.0521 192.562 93.8229 192.833 93.4062 193.125C93.0312 193.375 92.5729 193.604 92.0312 193.812C91.5312 194.021 91.0521 194.146 90.5938 194.188C90.1354 194.271 89.8229 194.229 89.6562 194.062C89.4896 193.896 89.2188 193.583 88.8438 193.125C88.4688 192.667 88.2396 191.917 88.1562 190.875C88.0729 189.792 88.0312 188.438 88.0312 186.812C88.0312 185.146 88.0104 183.312 87.9688 181.312V178.812C87.9688 178.062 87.9479 177.188 87.9062 176.188C87.9062 175.188 87.8854 174.146 87.8438 173.062C88.2188 172.854 88.5938 172.667 88.9688 172.5C89.3854 172.292 89.7604 172.125 90.0938 172C90.4688 171.833 90.8229 171.708 91.1562 171.625C92.0312 171.375 92.6979 171.229 93.1562 171.188C93.6146 171.146 93.8854 171.292 93.9688 171.625C94.0104 171.875 93.9896 172.479 93.9062 173.438C93.8229 174.271 93.7188 175.542 93.5938 177.25C93.4688 178.917 93.2604 181.25 92.9688 184.25C93.5104 182.917 93.9479 181.771 94.2812 180.812C94.6562 179.854 94.9688 179.083 95.2188 178.5C95.4688 177.792 95.6979 177.229 95.9062 176.812C96.1146 176.271 96.3854 175.667 96.7188 175C97.0521 174.333 97.3854 173.708 97.7188 173.125C98.0938 172.542 98.4271 172.021 98.7188 171.562C99.0521 171.104 99.3021 170.833 99.4688 170.75C99.5938 170.667 99.9688 170.667 100.594 170.75C101.219 170.833 101.885 171.042 102.594 171.375C103.302 171.667 103.99 172.104 104.656 172.688C105.323 173.229 105.76 173.896 105.969 174.688C106.219 175.604 106.302 176.812 106.219 178.312C106.177 179.812 106.073 181.354 105.906 182.938C105.781 184.521 105.677 186.021 105.594 187.438C105.51 188.854 105.594 189.938 105.844 190.688C105.927 191.104 106.052 191.479 106.219 191.812C106.302 192.146 106.406 192.458 106.531 192.75C106.698 193 106.865 193.188 107.031 193.312C106.031 193.771 105.219 194.104 104.594 194.312C103.969 194.521 103.49 194.667 103.156 194.75C102.74 194.875 102.448 194.917 102.281 194.875C101.906 194.75 101.573 194.438 101.281 193.938C101.031 193.438 100.802 192.646 100.594 191.562C100.51 191.229 100.469 190.688 100.469 189.938C100.51 189.146 100.573 188.271 100.656 187.312C100.74 186.312 100.823 185.292 100.906 184.25C101.031 183.167 101.115 182.167 101.156 181.25C101.24 180.292 101.302 179.479 101.344 178.812C101.385 178.104 101.385 177.625 101.344 177.375C101.135 176.625 100.844 176.104 100.469 175.812C100.094 175.479 99.8021 175.438 99.5938 175.688C99.0521 176.312 98.4688 177.333 97.8438 178.75C97.2604 180.125 96.6979 181.646 96.1562 183.312C95.6146 184.938 95.1562 186.562 94.7812 188.188C94.4062 189.812 94.1771 191.188 94.0938 192.312ZM127.781 186.125C127.781 186.583 127.615 187.292 127.281 188.25C126.99 189.167 126.49 190.104 125.781 191.062C125.073 191.979 124.156 192.792 123.031 193.5C121.948 194.208 120.615 194.562 119.031 194.562C116.781 194.562 114.885 193.958 113.344 192.75C111.844 191.5 110.781 189.729 110.156 187.438C109.656 185.521 109.51 183.479 109.719 181.312C109.969 179.104 110.573 177.062 111.531 175.188C112.49 173.312 113.823 171.729 115.531 170.438C117.24 169.104 119.323 168.375 121.781 168.25C123.031 168.208 124.073 168.438 124.906 168.938C125.74 169.438 126.385 170.083 126.844 170.875C127.302 171.667 127.573 172.542 127.656 173.5C127.74 174.417 127.635 175.292 127.344 176.125C127.094 176.958 126.677 177.667 126.094 178.25C125.552 178.792 124.844 179.083 123.969 179.125C123.094 179.208 122.365 179.104 121.781 178.812C121.24 178.479 120.802 178.083 120.469 177.625C120.177 177.167 119.969 176.688 119.844 176.188C119.76 175.688 119.76 175.25 119.844 174.875C119.969 174.333 120.177 173.833 120.469 173.375C120.719 172.958 121.073 172.542 121.531 172.125C122.031 171.708 122.677 171.375 123.469 171.125C123.344 171.042 123.219 171 123.094 171C122.969 171 122.844 170.979 122.719 170.938C122.552 170.938 122.427 170.917 122.344 170.875C121.677 170.875 120.906 171.104 120.031 171.562C119.198 172.021 118.385 172.75 117.594 173.75C116.844 174.75 116.198 176.042 115.656 177.625C115.156 179.167 114.906 181.042 114.906 183.25C114.906 184.208 115.01 185.167 115.219 186.125C115.427 187.042 115.74 187.875 116.156 188.625C116.615 189.333 117.156 189.917 117.781 190.375C118.448 190.792 119.219 191 120.094 191C121.094 191 121.969 190.792 122.719 190.375C123.51 189.917 124.177 189.396 124.719 188.812C125.26 188.229 125.677 187.646 125.969 187.062C126.302 186.479 126.531 186.042 126.656 185.75C126.781 185.5 126.99 185.375 127.281 185.375C127.615 185.375 127.781 185.625 127.781 186.125ZM149.906 170C149.99 173.667 150.052 176.875 150.094 179.625C150.135 182.375 150.177 184.688 150.219 186.562C150.26 188.771 150.281 190.667 150.281 192.25C150.323 194.208 150.156 196.229 149.781 198.312C149.448 200.438 148.885 202.375 148.094 204.125C147.302 205.875 146.26 207.312 144.969 208.438C143.677 209.562 142.115 210.125 140.281 210.125C138.073 210.125 136.385 209.667 135.219 208.75C134.052 207.875 133.198 206.875 132.656 205.75C132.115 204.625 131.802 203.562 131.719 202.562C131.635 201.604 131.594 201.042 131.594 200.875C131.594 200.542 131.802 200.167 132.219 199.75C132.635 199.333 133.26 198.958 134.094 198.625C134.427 198.5 134.76 198.396 135.094 198.312C135.385 198.229 135.677 198.167 135.969 198.125C136.26 198.083 136.531 198.104 136.781 198.188C136.365 198.938 136.115 199.792 136.031 200.75C135.99 201.708 136.115 202.604 136.406 203.438C136.74 204.312 137.219 205.042 137.844 205.625C138.469 206.208 139.26 206.5 140.219 206.5C141.552 206.5 142.594 206.104 143.344 205.312C144.135 204.562 144.719 203.625 145.094 202.5C145.51 201.375 145.76 200.188 145.844 198.938C145.969 197.688 146.031 196.583 146.031 195.625C146.031 194.875 146.01 193.917 145.969 192.75C145.969 191.542 145.906 190.208 145.781 188.75C145.281 189.583 144.698 190.396 144.031 191.188C143.365 191.938 142.656 192.604 141.906 193.188C141.156 193.771 140.385 194.229 139.594 194.562C138.844 194.938 138.094 195.125 137.344 195.125C136.052 195.125 135.01 194.729 134.219 193.938C133.427 193.104 132.823 192.083 132.406 190.875C131.99 189.625 131.698 188.292 131.531 186.875C131.406 185.417 131.344 184.083 131.344 182.875C131.344 181.958 131.385 180.854 131.469 179.562C131.552 178.229 131.656 176.958 131.781 175.75C131.906 174.542 132.052 173.5 132.219 172.625C132.427 171.708 132.635 171.188 132.844 171.062C134.052 170.354 135.24 169.958 136.406 169.875C137.573 169.792 138.448 169.938 139.031 170.312C138.531 170.688 138.115 171.312 137.781 172.188C137.448 173.062 137.177 174.042 136.969 175.125C136.76 176.167 136.615 177.271 136.531 178.438C136.448 179.562 136.406 180.583 136.406 181.5C136.406 182.25 136.427 183.146 136.469 184.188C136.51 185.229 136.594 186.229 136.719 187.188C136.885 188.146 137.115 188.958 137.406 189.625C137.698 190.292 138.073 190.625 138.531 190.625C139.448 190.625 140.302 190.292 141.094 189.625C141.885 188.958 142.573 188.125 143.156 187.125C143.781 186.125 144.26 185.062 144.594 183.938C144.927 182.771 145.094 181.688 145.094 180.688V180.188C145.01 179.104 144.927 178.083 144.844 177.125C144.76 176.125 144.677 175.229 144.594 174.438C144.552 173.646 144.51 173 144.469 172.5C144.469 171.958 144.469 171.604 144.469 171.438C144.469 171.021 144.74 170.646 145.281 170.312C145.865 169.979 146.49 169.75 147.156 169.625C147.865 169.458 148.49 169.396 149.031 169.438C149.615 169.479 149.906 169.667 149.906 170Z" fill="white"/>
</svg>
