<svg width="216" height="158" viewBox="0 0 216 158" fill="none" xmlns="http://www.w3.org/2000/svg">
<path d="M62.9998 100.088H71.3328C72.7469 100.084 74.0923 99.4744 75.0327 98.4126H116.831C119.277 98.4136 121.675 97.7376 123.764 96.4587L154.996 77.3427C156.473 76.4459 157.513 74.9725 157.867 73.2747C158.222 71.577 157.859 69.8076 156.865 68.3896C156.829 68.3313 156.79 68.2753 156.748 68.222C155.136 66.0685 152.338 65.1876 149.792 66.0319L137.997 69.9748V34.7371H140.18C141.578 34.7446 142.831 33.8749 143.32 32.5587C143.81 31.2425 143.43 29.7594 142.37 28.8438L137.997 25.0484V6.2507C137.997 4.39981 136.505 2.89936 134.664 2.89936H126.331C124.49 2.89936 122.998 4.39981 122.998 6.2507V12.0284L110.165 0.888559C108.915 -0.178551 107.081 -0.178551 105.832 0.888559L73.6211 28.8488C72.5644 29.7658 72.1879 31.2477 72.6778 32.5619C73.1677 33.8761 74.4201 34.7443 75.816 34.7371H77.9993V58.1965H76.026C75.3223 56.1951 73.4441 54.8539 71.3328 54.8451H62.9998C60.2385 54.8451 58 57.0958 58 59.8721V95.0612C58 97.8376 60.2385 100.088 62.9998 100.088V100.088ZM150.83 69.204C151.973 68.8264 153.23 69.1922 153.996 70.1256C154.022 70.1672 154.049 70.2075 154.078 70.2462C154.569 70.9029 154.761 71.7381 154.605 72.5447C154.449 73.3513 153.96 74.0535 153.26 74.4773L122.031 93.5967C120.464 94.5551 118.665 95.0617 116.831 95.0612H76.3326V61.5478H79.3325C82.4076 61.5513 85.3906 62.6034 87.7939 64.5322C90.7876 66.9335 94.5022 68.2441 98.3318 68.2505H107.048C109.372 68.2567 111.527 69.4738 112.741 71.4661C112.76 71.508 112.78 71.5465 112.796 71.5767C113.843 73.1104 113.796 75.1457 112.68 76.6288H102.532C99.241 76.631 96.0244 77.6103 93.2854 79.444L92.0687 80.265C91.3048 80.7814 91.1018 81.8228 91.6154 82.5909C92.129 83.359 93.1647 83.5631 93.9287 83.0467L95.1353 82.2323C97.326 80.7648 99.8993 79.9813 102.532 79.9802H117.348C118.247 79.9813 119.14 79.8336 119.991 79.5428L150.83 69.204ZM119.664 76.1261L118.924 76.3741C118.416 76.5454 117.884 76.6314 117.348 76.6288H116.439C117.175 74.4042 116.911 71.968 115.716 69.9546C115.69 69.897 115.66 69.841 115.626 69.7871C113.814 66.7631 110.563 64.9098 107.052 64.8992H98.3318C97.662 64.8936 96.9934 64.8376 96.3319 64.7316V61.5478C96.3319 55.0697 101.555 49.8181 107.998 49.8181C114.441 49.8181 119.664 55.0697 119.664 61.5478V76.1261ZM126.331 6.2507H134.664V22.1562L126.331 14.9223V6.2507ZM84.6657 34.7371C85.5861 34.7371 86.3323 33.9869 86.3323 33.0614C86.3323 32.136 85.5861 31.3858 84.6657 31.3858H75.8043L107.998 3.43055L123.498 16.8862L140.18 31.3858H117.998C117.077 31.3858 116.331 32.136 116.331 33.0614C116.331 33.9869 117.077 34.7371 117.998 34.7371H134.664V71.0991L122.998 75.0085V61.5478C122.998 53.2188 116.282 46.4668 107.998 46.4668C99.7142 46.4668 92.9987 53.2188 92.9987 61.5478V63.7865C91.8775 63.3078 90.8263 62.6782 89.8738 61.9148C87.4125 59.9468 84.4551 58.7064 81.3325 58.3322V34.7371H84.6657ZM61.3332 59.8721C61.3332 58.9467 62.0794 58.1965 62.9998 58.1965H71.3328C72.2533 58.1965 72.9994 58.9467 72.9994 59.8721V95.0612C72.9994 95.9867 72.2533 96.7369 71.3328 96.7369H62.9998C62.0794 96.7369 61.3332 95.9867 61.3332 95.0612V59.8721Z" fill="white"/>
<path d="M77.9994 7.92634C78.9198 7.92634 79.666 7.17612 79.666 6.25067V2.89933C79.666 1.97389 78.9198 1.22366 77.9994 1.22366C77.0789 1.22366 76.3328 1.97389 76.3328 2.89933V6.25067C76.3328 7.17612 77.0789 7.92634 77.9994 7.92634Z" fill="white"/>
<path d="M77.9994 11.2777C77.0789 11.2777 76.3328 12.0279 76.3328 12.9534V16.3047C76.3328 17.2302 77.0789 17.9804 77.9994 17.9804C78.9198 17.9804 79.666 17.2302 79.666 16.3047V12.9534C79.666 12.0279 78.9198 11.2777 77.9994 11.2777Z" fill="white"/>
<path d="M81.3325 11.2777H84.6657C85.5861 11.2777 86.3323 10.5274 86.3323 9.602C86.3323 8.67655 85.5861 7.92633 84.6657 7.92633H81.3325C80.4121 7.92633 79.6659 8.67655 79.6659 9.602C79.6659 10.5274 80.4121 11.2777 81.3325 11.2777Z" fill="white"/>
<path d="M71.3329 11.2777H74.6661C75.5865 11.2777 76.3327 10.5274 76.3327 9.602C76.3327 8.67655 75.5865 7.92633 74.6661 7.92633H71.3329C70.4124 7.92633 69.6663 8.67655 69.6663 9.602C69.6663 10.5274 70.4124 11.2777 71.3329 11.2777Z" fill="white"/>
<path d="M150.497 48.9803C150.939 48.9802 151.362 48.8036 151.675 48.4893L154.175 45.9758C154.806 45.3183 154.797 44.2732 154.155 43.6268C153.512 42.9805 152.472 42.9714 151.818 43.6064L149.318 46.1199C148.842 46.5992 148.699 47.3198 148.957 47.9458C149.215 48.5719 149.823 48.9802 150.497 48.9803V48.9803Z" fill="white"/>
<path d="M144.318 51.1469L141.819 53.6604C141.385 54.0811 141.212 54.7041 141.364 55.29C141.517 55.8759 141.972 56.3334 142.554 56.4867C143.137 56.6401 143.757 56.4654 144.175 56.0298L146.675 53.5163C147.307 52.8588 147.298 51.8137 146.655 51.1673C146.012 50.5209 144.972 50.5119 144.318 51.1469V51.1469Z" fill="white"/>
<path d="M151.818 56.0298C152.472 56.6648 153.512 56.6557 154.155 56.0094C154.797 55.363 154.806 54.3179 154.175 53.6604L151.675 51.1469C151.021 50.5119 149.982 50.5209 149.339 51.1673C148.696 51.8137 148.687 52.8588 149.318 53.5163L151.818 56.0298Z" fill="white"/>
<path d="M141.819 43.6063C141.168 44.2607 141.168 45.3214 141.819 45.9757L144.318 48.4892C144.972 49.1243 146.012 49.1152 146.655 48.4688C147.298 47.8225 147.307 46.7773 146.675 46.1198L144.175 43.6063C143.524 42.9522 142.469 42.9522 141.819 43.6063V43.6063Z" fill="white"/>
<path d="M91.3322 34.7371C95.9321 34.7426 99.6597 38.4905 99.6652 43.1154C99.6652 44.0409 100.411 44.7911 101.332 44.7911C102.252 44.7911 102.998 44.0409 102.998 43.1154C103.004 38.4905 106.732 34.7426 111.331 34.7371C112.252 34.7371 112.998 33.9868 112.998 33.0614C112.998 32.1359 112.252 31.3857 111.331 31.3857C106.732 31.3802 103.004 27.6323 102.998 23.0074C102.998 22.0819 102.252 21.3317 101.332 21.3317C100.411 21.3317 99.6652 22.0819 99.6652 23.0074C99.6597 27.6323 95.9321 31.3802 91.3322 31.3857C90.4118 31.3857 89.6656 32.1359 89.6656 33.0614C89.6656 33.9868 90.4118 34.7371 91.3322 34.7371ZM101.332 29.0398C102.32 30.6871 103.693 32.0675 105.332 33.0614C103.693 34.0553 102.32 35.4356 101.332 37.083C100.343 35.4356 98.9704 34.0553 97.332 33.0614C98.9704 32.0675 100.343 30.6871 101.332 29.0398Z" fill="white"/>
<path d="M62.2734 143.625C60.5859 143.625 59.0547 143.203 57.6797 142.359C56.3047 141.547 55.1328 140.422 54.1641 138.984C53.2266 137.547 52.4922 135.859 51.9609 133.922C51.4609 131.984 51.2109 129.891 51.2109 127.641C51.2109 124.422 51.5859 121.547 52.3359 119.016C53.0859 116.484 54.0703 114.344 55.2891 112.594C56.5391 110.844 57.9453 109.5 59.5078 108.562C61.1016 107.625 62.7266 107.156 64.3828 107.156C65.9453 107.156 67.2578 107.438 68.3203 108C69.3828 108.562 70.2266 109.281 70.8516 110.156C71.5078 111.031 71.9453 112 72.1641 113.062C72.4141 114.094 72.4922 115.078 72.3984 116.016C72.2422 117.828 71.6172 119.297 70.5234 120.422C69.4609 121.547 68.2266 122.109 66.8203 122.109C66.3516 122.078 65.8672 122 65.3672 121.875C64.9297 121.75 64.4766 121.562 64.0078 121.312C63.5391 121.062 63.1016 120.703 62.6953 120.234C64.0078 120.328 65.0234 120.062 65.7422 119.438C66.4609 118.812 66.9922 118.109 67.3359 117.328C67.7109 116.422 67.9297 115.359 67.9922 114.141C67.9922 113.453 67.8828 112.859 67.6641 112.359C67.4453 111.828 67.1484 111.406 66.7734 111.094C66.4297 110.75 66.0547 110.5 65.6484 110.344C65.2422 110.188 64.8516 110.109 64.4766 110.109C63.6328 110.109 62.7109 110.438 61.7109 111.094C60.7422 111.75 59.8203 112.75 58.9453 114.094C58.0703 115.406 57.3359 117.094 56.7422 119.156C56.1797 121.188 55.8984 123.609 55.8984 126.422C55.8984 129.203 56.1484 131.484 56.6484 133.266C57.1484 135.016 57.7578 136.391 58.4766 137.391C59.1953 138.359 59.9453 139.031 60.7266 139.406C61.5391 139.75 62.2266 139.922 62.7891 139.922C63.8828 139.828 64.8828 139.453 65.7891 138.797C66.5703 138.234 67.3047 137.344 67.9922 136.125C68.7109 134.875 69.1953 133.094 69.4453 130.781C69.8516 130.812 70.1797 130.906 70.4297 131.062C70.7109 131.219 70.9453 131.375 71.1328 131.531C71.3203 131.719 71.4922 131.938 71.6484 132.188C71.6797 132.219 71.6797 132.531 71.6484 133.125C71.6172 133.719 71.5078 134.438 71.3203 135.281C71.1328 136.125 70.8359 137.031 70.4297 138C70.0547 138.969 69.5078 139.875 68.7891 140.719C68.1016 141.562 67.2266 142.25 66.1641 142.781C65.1016 143.344 63.8047 143.625 62.2734 143.625ZM80.9766 109.125C80.9141 110.25 80.8047 111.547 80.6484 113.016C80.4922 114.484 80.3203 116.062 80.1328 117.75C79.9766 119.438 79.8047 121.203 79.6172 123.047C79.4609 124.891 79.3203 126.75 79.1953 128.625C79.0703 130.5 79.0078 132.031 79.0078 133.219C79.0391 134.375 79.1172 135.328 79.2422 136.078C79.3672 136.828 79.5391 137.422 79.7578 137.859C79.9766 138.297 80.2578 138.719 80.6016 139.125C80.1953 139.375 79.8203 139.562 79.4766 139.688C79.1328 139.812 78.8359 139.906 78.5859 139.969C78.2734 140.062 77.9922 140.109 77.7422 140.109C77.2734 140.109 76.8672 139.891 76.5234 139.453C76.1797 138.984 75.8984 138.391 75.6797 137.672C75.4922 136.953 75.3359 136.156 75.2109 135.281C75.1172 134.375 75.0703 133.484 75.0703 132.609C75.0703 131.672 75.1016 130.594 75.1641 129.375C75.2266 128.125 75.2891 126.812 75.3516 125.438C75.4453 124.031 75.5391 122.578 75.6328 121.078C75.7266 119.547 75.8047 118.031 75.8672 116.531C75.9297 115.375 75.9922 114.328 76.0547 113.391C76.1172 112.578 76.1641 111.844 76.1953 111.188C76.2266 110.5 76.2109 110.094 76.1484 109.969C76.3359 109.719 76.5703 109.531 76.8516 109.406C77.1328 109.281 77.3984 109.172 77.6484 109.078C77.9609 108.984 78.2734 108.906 78.5859 108.844H79.4766C79.7266 108.844 79.9922 108.875 80.2734 108.938C80.5547 108.969 80.7891 109.031 80.9766 109.125ZM89.4609 140.016C87.2734 140.016 85.5859 139.281 84.3984 137.812C83.2109 136.344 82.6172 134.422 82.6172 132.047C82.6172 130.391 82.8516 128.844 83.3203 127.406C83.8203 125.938 84.4766 124.672 85.2891 123.609C86.1016 122.547 87.0391 121.719 88.1016 121.125C89.1953 120.5 90.3359 120.188 91.5234 120.188C92.6797 120.188 93.6641 120.609 94.4766 121.453C95.2891 122.266 95.6953 123.438 95.6953 124.969C95.6953 125.969 95.4766 126.969 95.0391 127.969C94.6016 128.938 94.0234 129.812 93.3047 130.594C92.6172 131.344 91.8516 131.953 91.0078 132.422C90.1641 132.891 89.3516 133.125 88.5703 133.125C88.0703 133.125 87.6484 133.062 87.3047 132.938C86.9609 132.812 86.6484 132.625 86.3672 132.375C86.4609 134.156 86.8516 135.406 87.5391 136.125C88.2266 136.812 89.1172 137.156 90.2109 137.156C90.9609 137.156 91.6172 137 92.1797 136.688C92.7734 136.375 93.2734 136.016 93.6797 135.609C94.0859 135.203 94.4141 134.797 94.6641 134.391C94.9141 133.953 95.0859 133.625 95.1797 133.406C95.2734 133.219 95.4297 133.125 95.6484 133.125C95.8984 133.125 96.0234 133.312 96.0234 133.688C96.0234 134.031 95.8984 134.562 95.6484 135.281C95.4297 135.969 95.0547 136.672 94.5234 137.391C93.9922 138.078 93.3047 138.688 92.4609 139.219C91.6484 139.75 90.6484 140.016 89.4609 140.016ZM91.6172 122.203C91.4297 122.203 91.0703 122.406 90.5391 122.812C90.0391 123.188 89.4922 123.75 88.8984 124.5C88.3359 125.25 87.8047 126.156 87.3047 127.219C86.8359 128.25 86.5391 129.422 86.4141 130.734C88.2891 130.297 89.7734 129.609 90.8672 128.672C91.9609 127.734 92.5078 126.359 92.5078 124.547C92.5078 123.641 92.3984 123.031 92.1797 122.719C91.9609 122.375 91.7734 122.203 91.6172 122.203ZM112.289 137.109C112.352 137.328 112.445 137.531 112.57 137.719C112.664 137.875 112.789 138.031 112.945 138.188C113.133 138.312 113.352 138.391 113.602 138.422C113.383 138.859 113.164 139.156 112.945 139.312C112.82 139.406 112.711 139.469 112.617 139.5C112.336 139.594 111.914 139.641 111.352 139.641C110.789 139.641 110.242 139.469 109.711 139.125C109.523 138.969 109.352 138.734 109.195 138.422C109.039 138.172 108.898 137.828 108.773 137.391C108.68 136.922 108.602 136.328 108.539 135.609C108.102 136.547 107.602 137.297 107.039 137.859C106.508 138.391 105.977 138.781 105.445 139.031C104.852 139.375 104.242 139.578 103.617 139.641C102.836 139.703 102.086 139.578 101.367 139.266C100.68 138.922 100.086 138.422 99.5859 137.766C99.1172 137.078 98.7578 136.25 98.5078 135.281C98.2578 134.312 98.1797 133.219 98.2734 132C98.3672 130.719 98.6172 129.578 99.0234 128.578C99.4297 127.578 99.9141 126.688 100.477 125.906C101.039 125.125 101.633 124.469 102.258 123.938C102.883 123.375 103.477 122.922 104.039 122.578C104.633 122.203 105.133 121.938 105.539 121.781C105.977 121.594 106.258 121.484 106.383 121.453C106.727 121.359 107.023 121.328 107.273 121.359C107.523 121.391 107.742 121.531 107.93 121.781C107.992 121.875 108.07 121.984 108.164 122.109C108.227 122.234 108.305 122.406 108.398 122.625C108.492 122.812 108.57 123.031 108.633 123.281C107.883 123.625 107.18 124.016 106.523 124.453C105.867 124.859 105.258 125.359 104.695 125.953C104.164 126.547 103.695 127.266 103.289 128.109C102.883 128.953 102.57 129.984 102.352 131.203C102.039 132.734 102.117 133.969 102.586 134.906C103.086 135.844 103.758 136.234 104.602 136.078C105.102 135.922 105.586 135.625 106.055 135.188C106.461 134.812 106.883 134.25 107.32 133.5C107.789 132.75 108.227 131.719 108.633 130.406C108.789 128.531 108.914 127.062 109.008 126C109.133 124.906 109.242 124.078 109.336 123.516C109.461 122.859 109.555 122.422 109.617 122.203C109.711 122.047 109.898 121.906 110.18 121.781C110.461 121.625 110.773 121.5 111.117 121.406C111.461 121.312 111.773 121.266 112.055 121.266C112.336 121.234 112.523 121.234 112.617 121.266C112.68 121.297 112.711 121.688 112.711 122.438C112.711 123.156 112.68 124.078 112.617 125.203C112.586 126.297 112.539 127.5 112.477 128.812C112.414 130.094 112.352 131.312 112.289 132.469C112.258 133.625 112.227 134.641 112.195 135.516C112.195 136.359 112.227 136.891 112.289 137.109ZM121.195 138.234C121.164 138.422 120.992 138.625 120.68 138.844C120.398 139.031 120.055 139.203 119.648 139.359C119.273 139.516 118.914 139.609 118.57 139.641C118.227 139.703 117.992 139.672 117.867 139.547C117.742 139.422 117.539 139.188 117.258 138.844C116.977 138.5 116.805 137.938 116.742 137.156C116.68 136.344 116.648 135.328 116.648 134.109C116.648 132.859 116.633 131.484 116.602 129.984V128.109C116.602 127.547 116.586 126.891 116.555 126.141C116.555 125.391 116.539 124.609 116.508 123.797C116.789 123.641 117.07 123.5 117.352 123.375C117.664 123.219 117.945 123.094 118.195 123C118.477 122.875 118.742 122.781 118.992 122.719C119.648 122.531 120.148 122.422 120.492 122.391C120.836 122.359 121.039 122.469 121.102 122.719C121.133 122.906 121.117 123.359 121.055 124.078C120.992 124.703 120.914 125.656 120.82 126.938C120.727 128.188 120.57 129.938 120.352 132.188C120.758 131.188 121.086 130.328 121.336 129.609C121.617 128.891 121.852 128.312 122.039 127.875C122.227 127.344 122.398 126.922 122.555 126.609C122.711 126.203 122.914 125.75 123.164 125.25C123.414 124.75 123.664 124.281 123.914 123.844C124.195 123.406 124.445 123.016 124.664 122.672C124.914 122.328 125.102 122.125 125.227 122.062C125.32 122 125.602 122 126.07 122.062C126.539 122.125 127.039 122.281 127.57 122.531C128.102 122.75 128.617 123.078 129.117 123.516C129.617 123.922 129.945 124.422 130.102 125.016C130.289 125.703 130.352 126.609 130.289 127.734C130.258 128.859 130.18 130.016 130.055 131.203C129.961 132.391 129.883 133.516 129.82 134.578C129.758 135.641 129.82 136.453 130.008 137.016C130.07 137.328 130.164 137.609 130.289 137.859C130.352 138.109 130.43 138.344 130.523 138.562C130.648 138.75 130.773 138.891 130.898 138.984C130.148 139.328 129.539 139.578 129.07 139.734C128.602 139.891 128.242 140 127.992 140.062C127.68 140.156 127.461 140.188 127.336 140.156C127.055 140.062 126.805 139.828 126.586 139.453C126.398 139.078 126.227 138.484 126.07 137.672C126.008 137.422 125.977 137.016 125.977 136.453C126.008 135.859 126.055 135.203 126.117 134.484C126.18 133.734 126.242 132.969 126.305 132.188C126.398 131.375 126.461 130.625 126.492 129.938C126.555 129.219 126.602 128.609 126.633 128.109C126.664 127.578 126.664 127.219 126.633 127.031C126.477 126.469 126.258 126.078 125.977 125.859C125.695 125.609 125.477 125.578 125.32 125.766C124.914 126.234 124.477 127 124.008 128.062C123.57 129.094 123.148 130.234 122.742 131.484C122.336 132.703 121.992 133.922 121.711 135.141C121.43 136.359 121.258 137.391 121.195 138.234ZM146.461 133.594C146.461 133.938 146.336 134.469 146.086 135.188C145.867 135.875 145.492 136.578 144.961 137.297C144.43 137.984 143.742 138.594 142.898 139.125C142.086 139.656 141.086 139.922 139.898 139.922C138.211 139.922 136.789 139.469 135.633 138.562C134.508 137.625 133.711 136.297 133.242 134.578C132.867 133.141 132.758 131.609 132.914 129.984C133.102 128.328 133.555 126.797 134.273 125.391C134.992 123.984 135.992 122.797 137.273 121.828C138.555 120.828 140.117 120.281 141.961 120.188C142.898 120.156 143.68 120.328 144.305 120.703C144.93 121.078 145.414 121.562 145.758 122.156C146.102 122.75 146.305 123.406 146.367 124.125C146.43 124.812 146.352 125.469 146.133 126.094C145.945 126.719 145.633 127.25 145.195 127.688C144.789 128.094 144.258 128.312 143.602 128.344C142.945 128.406 142.398 128.328 141.961 128.109C141.555 127.859 141.227 127.562 140.977 127.219C140.758 126.875 140.602 126.516 140.508 126.141C140.445 125.766 140.445 125.438 140.508 125.156C140.602 124.75 140.758 124.375 140.977 124.031C141.164 123.719 141.43 123.406 141.773 123.094C142.148 122.781 142.633 122.531 143.227 122.344C143.133 122.281 143.039 122.25 142.945 122.25C142.852 122.25 142.758 122.234 142.664 122.203C142.539 122.203 142.445 122.188 142.383 122.156C141.883 122.156 141.305 122.328 140.648 122.672C140.023 123.016 139.414 123.562 138.82 124.312C138.258 125.062 137.773 126.031 137.367 127.219C136.992 128.375 136.805 129.781 136.805 131.438C136.805 132.156 136.883 132.875 137.039 133.594C137.195 134.281 137.43 134.906 137.742 135.469C138.086 136 138.492 136.438 138.961 136.781C139.461 137.094 140.039 137.25 140.695 137.25C141.445 137.25 142.102 137.094 142.664 136.781C143.258 136.438 143.758 136.047 144.164 135.609C144.57 135.172 144.883 134.734 145.102 134.297C145.352 133.859 145.523 133.531 145.617 133.312C145.711 133.125 145.867 133.031 146.086 133.031C146.336 133.031 146.461 133.219 146.461 133.594ZM163.055 121.5C163.117 124.25 163.164 126.656 163.195 128.719C163.227 130.781 163.258 132.516 163.289 133.922C163.32 135.578 163.336 137 163.336 138.188C163.367 139.656 163.242 141.172 162.961 142.734C162.711 144.328 162.289 145.781 161.695 147.094C161.102 148.406 160.32 149.484 159.352 150.328C158.383 151.172 157.211 151.594 155.836 151.594C154.18 151.594 152.914 151.25 152.039 150.562C151.164 149.906 150.523 149.156 150.117 148.312C149.711 147.469 149.477 146.672 149.414 145.922C149.352 145.203 149.32 144.781 149.32 144.656C149.32 144.406 149.477 144.125 149.789 143.812C150.102 143.5 150.57 143.219 151.195 142.969C151.445 142.875 151.695 142.797 151.945 142.734C152.164 142.672 152.383 142.625 152.602 142.594C152.82 142.562 153.023 142.578 153.211 142.641C152.898 143.203 152.711 143.844 152.648 144.562C152.617 145.281 152.711 145.953 152.93 146.578C153.18 147.234 153.539 147.781 154.008 148.219C154.477 148.656 155.07 148.875 155.789 148.875C156.789 148.875 157.57 148.578 158.133 147.984C158.727 147.422 159.164 146.719 159.445 145.875C159.758 145.031 159.945 144.141 160.008 143.203C160.102 142.266 160.148 141.438 160.148 140.719C160.148 140.156 160.133 139.438 160.102 138.562C160.102 137.656 160.055 136.656 159.961 135.562C159.586 136.188 159.148 136.797 158.648 137.391C158.148 137.953 157.617 138.453 157.055 138.891C156.492 139.328 155.914 139.672 155.32 139.922C154.758 140.203 154.195 140.344 153.633 140.344C152.664 140.344 151.883 140.047 151.289 139.453C150.695 138.828 150.242 138.062 149.93 137.156C149.617 136.219 149.398 135.219 149.273 134.156C149.18 133.062 149.133 132.062 149.133 131.156C149.133 130.469 149.164 129.641 149.227 128.672C149.289 127.672 149.367 126.719 149.461 125.812C149.555 124.906 149.664 124.125 149.789 123.469C149.945 122.781 150.102 122.391 150.258 122.297C151.164 121.766 152.055 121.469 152.93 121.406C153.805 121.344 154.461 121.453 154.898 121.734C154.523 122.016 154.211 122.484 153.961 123.141C153.711 123.797 153.508 124.531 153.352 125.344C153.195 126.125 153.086 126.953 153.023 127.828C152.961 128.672 152.93 129.438 152.93 130.125C152.93 130.688 152.945 131.359 152.977 132.141C153.008 132.922 153.07 133.672 153.164 134.391C153.289 135.109 153.461 135.719 153.68 136.219C153.898 136.719 154.18 136.969 154.523 136.969C155.211 136.969 155.852 136.719 156.445 136.219C157.039 135.719 157.555 135.094 157.992 134.344C158.461 133.594 158.82 132.797 159.07 131.953C159.32 131.078 159.445 130.266 159.445 129.516V129.141C159.383 128.328 159.32 127.562 159.258 126.844C159.195 126.094 159.133 125.422 159.07 124.828C159.039 124.234 159.008 123.75 158.977 123.375C158.977 122.969 158.977 122.703 158.977 122.578C158.977 122.266 159.18 121.984 159.586 121.734C160.023 121.484 160.492 121.312 160.992 121.219C161.523 121.094 161.992 121.047 162.398 121.078C162.836 121.109 163.055 121.25 163.055 121.5Z" fill="white"/>
</svg>
